<svg width="439" height="377" viewBox="0 0 439 377" fill="none" xmlns="http://www.w3.org/2000/svg">
<path d="M118.704 39.1724C74.8659 39.1724 44.2 64.621 35.4119 103.635C28.5075 134.286 69.4446 148.452 64.2218 179.374C58.4351 213.635 10.7162 214.019 1.61244 247.685C-11.1228 294.779 54.1576 340.664 106.632 340.664C161.199 340.664 206.431 375.272 251.985 375.272C314.601 375.272 309.772 368.35 358.062 350.161C402.518 333.416 433.485 330.612 438.43 283.806C443.375 237.001 402.811 193.057 392.72 179.374C382.629 165.691 421.481 106.936 401.523 54.9869C381.566 3.03762 261.599 53.8203 214.549 54.9869C178.632 55.8774 154.278 39.1724 118.704 39.1724Z" fill="#CEE1EC"/>
<path d="M252.143 372.996C250.018 348.294 251.579 323.604 252.436 298.912C255.13 297.035 257.88 296.037 261.344 296.868C276.793 300.57 292.426 302.292 308.346 303.165C314.463 303.5 320.241 310.328 326.094 314.317C326.503 314.593 326.197 315.859 326.297 316.657C327.797 328.807 328.425 341.018 328.663 353.245C328.827 361.702 328.055 362.439 319.636 364.583C314.305 365.942 308.282 365.62 304.389 370.626C302.654 371.341 300.916 372.052 299.18 372.767C298.424 372.883 297.667 372.996 296.911 373.111C295.53 366.303 294.219 359.474 292.713 352.694C292.391 351.246 293.392 348.896 290.643 348.596C290.945 340.638 290.669 332.718 289.902 324.776C289.168 317.185 284.87 312.24 276.239 312.375C288.334 317.948 286.348 326.756 285.263 336.028C283.753 348.931 283.589 361.992 282.849 374.985C282.717 375.198 282.639 375.429 282.61 375.677C281.374 375.603 280.138 375.529 278.902 375.455C276.925 373.301 274.337 374.377 272.016 374.229C265.39 373.81 258.662 375.104 252.143 372.996Z" fill="#325279"/>
<path d="M29.844 74.3823C29.1904 68.9545 32.5611 65.2459 36.376 62.8796C42.1354 59.3029 48.3552 55.942 55.6695 56.9271C57.3854 57.1589 58.5862 56.3605 59.1625 55.1243C61.6156 49.8799 66.7601 47.6103 70.9356 44.3298C77.9377 38.8279 88.5583 41.6416 91.8485 49.6449C86.9197 50.1085 90.2839 52.6067 91.0179 53.8912C95.3575 61.4856 100.508 68.6326 103.48 76.9643C102.447 77.5341 101.413 78.1039 100.38 78.6737C100.026 78.8765 99.6715 79.0826 99.3173 79.2854C92.7467 80.9884 87.0774 84.3526 81.9393 88.6987C79.9755 90.3631 78.0858 93.3475 76.0351 93.4602C68.7239 93.8626 63.0032 97.6968 57.5335 101.515C52.2795 105.185 48.8896 105.388 46.1048 99.2904C42.4863 90.7237 37.0649 83.1744 32.4838 75.1518C31.8399 74.025 30.842 74.2342 29.844 74.3823ZM80.7739 79.1019C80.3683 79.5075 79.9659 79.9132 79.5602 80.3188C78.7007 80.5377 77.6673 80.5699 77.7832 81.8737C77.796 82.0154 78.0182 82.2375 78.1598 82.2504C79.4669 82.3631 79.4959 81.3297 79.7148 80.4733C80.1204 80.0677 80.526 79.6653 80.9317 79.2596C81.3277 78.8637 81.7236 78.4709 82.1196 78.0749C83.5104 77.8463 84.8722 77.5276 85.1941 75.8729C85.3293 75.1807 84.8625 74.7171 84.1703 74.8491C82.5124 75.1678 82.1904 76.5264 81.9619 77.9139C81.5627 78.3131 81.1699 78.7059 80.7739 79.1019ZM91.7358 70.6382C90.6734 70.8733 89.2859 70.2905 88.7289 71.7586C88.6517 71.9614 88.9833 72.557 89.199 72.5988C90.6638 72.8885 91.1885 71.7103 91.8517 70.7735C92.3571 70.5867 92.8593 70.4032 93.3648 70.2165C93.2553 70.0717 93.0686 69.7916 93.0493 69.8044C92.5986 70.0652 92.1704 70.3549 91.7358 70.6382ZM77.2777 75.6411C78.4592 75.3771 79.6311 75.0294 79.3574 73.4745C79.2898 73.0946 78.5204 72.4636 78.2789 72.5473C76.8463 73.0334 77.3325 74.4145 77.1071 75.4705C76.3473 75.654 75.4459 75.6926 75.3526 76.7164C75.3332 76.9321 75.8161 77.4149 76.0351 77.3956C77.0588 77.3023 77.0974 76.3977 77.2777 75.6411ZM85.6512 68.2076C83.5748 68.301 81.4307 68.3171 81.347 71.4527C83.9257 71.3948 84.7659 69.7561 85.7575 68.3139C85.8347 68.1207 85.912 67.9243 85.9893 67.7312C85.8766 67.8921 85.7639 68.0499 85.6512 68.2076ZM82.0102 63.3529C77.4097 64.0418 74.8439 67.5638 71.9819 70.6286C71.1127 71.559 70.7296 72.9465 72.0527 73.7192C73.0507 74.3019 74.0326 73.3714 74.4222 72.4346C76.0222 68.5939 80.526 67.274 82.1164 63.4559C82.1937 63.2627 82.2677 63.0728 82.345 62.8796C82.2323 63.0406 82.1196 63.1983 82.0102 63.3529ZM38.372 68.3493C43.7644 66.7622 49.1536 65.1718 54.546 63.5847C48.0622 61.9846 42.8179 64.0965 38.2464 68.2205C38.1724 68.4201 38.1016 68.6197 38.0275 68.8193C38.1402 68.6616 38.2561 68.5038 38.372 68.3493ZM75.4781 53.888C71.5312 55.5427 68.4793 57.2715 66.8052 61.051C65.4434 64.1223 68.5501 65.1944 69.2648 67.3191C69.664 68.5071 71.0451 67.6475 71.7308 66.9553C74.1872 64.47 76.5727 61.9171 79.2512 59.1098C75.6005 57.6933 74.0262 62.8732 70.7875 61.0188C71.1578 57.9347 75.3654 57.7061 75.4781 53.888ZM56.9315 68.198C50.3318 66.5851 45.564 70.4032 40.5547 73.5872C46.2723 72.6407 51.1946 69.2797 56.9315 68.198ZM67.8096 86.3325C61.4772 86.3197 55.515 87.6267 51.1174 93.0577C56.7866 91.2098 61.7444 87.3337 67.8096 86.3325ZM58.905 72.557C52.0767 72.3348 46.7584 74.6914 43.8513 79.0375C49.2952 77.1091 53.7991 74.0604 58.905 72.557ZM65.4273 81.7224C60.3376 80.38 56.0784 82.0089 52.4019 85.4826C56.8896 84.813 60.7722 82.054 65.4273 81.7224ZM63.3831 77.1993C58.8921 76.3204 55.5504 77.0447 52.7399 79.8874C56.0591 79.0665 59.7838 79.8713 63.3831 77.1993ZM78.7393 45.9169C76.6081 46.6316 73.8749 46.4417 72.3296 50.4433C75.4781 48.9109 77.7638 48.531 78.7393 45.9169ZM66.0744 57.1685C66.0841 55.9194 65.6302 55.0663 64.3585 55.4462C63.2929 55.7649 61.8764 56.045 61.8764 57.542C61.8764 58.6172 62.6973 59.3512 63.7984 59.348C65.2149 59.3416 65.8169 58.3371 66.0744 57.1685ZM77.4838 53.2313C79.7309 53.0993 81.2375 52.9673 81.5112 50.4144C79.7437 50.6397 78.2854 50.7266 77.4838 53.2313ZM49.585 80.8918C47.6952 80.1514 46.5878 80.8597 46.0566 82.611C45.9793 82.8653 46.327 83.5285 46.5041 83.5349C48.2876 83.6219 49.2534 82.6818 49.585 80.8918ZM48.9218 86.9957C48.7769 87.3273 48.632 87.6621 48.4872 87.9937C48.822 88.1354 49.2308 88.4637 49.4691 88.3704C49.7073 88.277 49.7813 87.7555 49.9262 87.4239C49.5946 87.2822 49.2598 87.1374 48.9218 86.9957ZM83.9096 55.678C83.8838 55.9774 83.8581 56.2768 83.8323 56.573C83.945 56.4345 84.1414 56.3025 84.1542 56.1544C84.1639 56.0031 83.9997 55.8357 83.9096 55.678ZM90.242 66.0507C90.1905 65.8801 90.1776 65.6804 90.0746 65.5517C90.036 65.5034 89.7913 65.6193 89.6432 65.6612C89.6947 65.8318 89.7108 66.0314 89.8138 66.1601C89.8493 66.2084 90.0907 66.0893 90.242 66.0507ZM85.3583 61.7303C85.5289 61.7915 85.6995 61.8913 85.8702 61.8849C85.9281 61.8817 85.9764 61.6112 86.0279 61.4631C85.8573 61.4052 85.6866 61.3022 85.516 61.3086C85.4613 61.3118 85.4098 61.5822 85.3583 61.7303Z" fill="#F0EAD9"/>
<path d="M108.773 342.637C109.214 340.229 109.655 337.818 110.096 335.41C110.434 335.896 111.058 336.379 111.068 336.871C111.142 340.683 113.383 341.353 116.695 341.498C120.501 341.665 120.507 339.408 121.26 336.688C122.326 332.844 121.872 328.45 124.711 324.722C126.492 327.13 125.049 328.936 124.731 330.803C123.118 340.255 124.544 342.277 133.742 343.767C136.118 344.154 138.487 344.601 140.866 344.949C143.406 345.319 145.006 344.804 145.296 341.642C146.004 333.903 147.079 326.196 148.007 318.476C148.873 325.858 149.053 333.224 148.802 340.577C148.657 344.82 149.565 347.408 154.391 348.007C158.753 348.548 162.989 350.042 167.313 350.962C171.125 351.774 173.465 350.975 173.275 346.185C172.969 338.51 173.143 330.816 173.24 323.131C173.256 321.757 172.351 319.809 175.11 318.988C176.163 328.633 178.33 337.992 178.062 347.653C177.937 352.163 178.684 356.525 184.269 356.934C188.2 357.221 191.677 358.071 195.067 360.112C196.886 361.206 199.947 361.908 199.513 358.074C198.154 346.121 196.738 334.157 194.739 322.297C194.088 318.434 191.622 315.997 186.391 315.666C172.586 314.787 158.888 312.308 145.087 311.258C140.695 310.923 135.042 310.585 132.654 316.477C132.158 317.703 130.87 317.935 129.792 318.495C124.547 321.209 118.775 322.046 113.151 323.408C113.392 320.06 112.484 319.262 112.964 317.166C113.959 317.13 114.995 316.895 115.942 317.089C125.365 319.004 128.382 317.356 131.978 308.435C133.024 305.843 134.395 303.381 135.615 300.86C143.342 302.566 150.856 305.125 158.956 305.138C173.993 305.158 188.905 304.436 203.453 300.213C207.555 320.662 210.9 341.24 213.726 361.902C213.997 363.875 213.99 365.887 214.113 367.88C197.942 364.406 182.634 358.1 166.788 353.541C147.788 348.075 128.53 344.057 108.773 342.637Z" fill="#2C496B"/>
<path d="M382.291 161.649C376.338 154.003 377.201 145.23 385.813 136.654C388.875 136.805 392.084 135.366 394.956 137.002C394.988 138.702 394.042 139.117 393.221 139.68C386.508 144.277 384.963 150.529 389 156.672C392.548 162.068 400.999 163.783 406.855 160.297C414.362 155.825 418.261 140.585 413.915 133.026C412.511 130.582 410.946 132.083 409.263 132.411C407.605 132.733 405.776 134.771 404.302 133.032C403.043 131.548 404.418 129.62 404.978 127.926C407.061 121.617 409.182 115.316 411.123 108.965C412.131 105.668 413.683 105.346 416.345 107.278C422.394 111.666 428.556 115.899 434.612 120.284C437.564 122.421 438.134 124.395 433.697 125.187C429.049 126.017 428.469 128.374 429.145 132.936C430.765 143.881 424.509 159.998 413.625 165.213C407.296 168.245 401.366 170.261 394.479 169.108C389.419 168.258 385.81 165.023 382.291 161.649Z" fill="#62A4D1"/>
<path d="M304.389 370.61C308.281 365.601 314.305 365.926 319.636 364.567C328.055 362.423 328.827 361.686 328.663 353.229C328.425 341.002 327.797 328.791 326.297 316.641C326.197 315.843 326.503 314.577 326.094 314.301C320.241 310.312 314.463 303.484 308.346 303.149C292.426 302.279 276.793 300.554 261.343 296.852C257.876 296.021 255.127 297.019 252.436 298.896C252.384 296.214 252.336 293.533 252.284 290.851C254.238 290.906 255.434 291.651 257.136 292.032C257.941 292.213 257.941 292.234 258.745 292.354C259.872 292.522 260.635 292.686 261.846 292.866C262.448 293.32 262.126 292.866 263.085 293.626C264.299 293.777 265.509 293.925 266.723 294.077C267.599 294.077 267.277 294.286 267.937 294.785C269.984 294.898 272.028 295.01 274.076 295.12C277.096 295.49 278.545 295.49 281.397 295.49C282.614 295.59 283.834 295.69 285.051 295.786C285.81 295.834 286.573 295.883 287.333 295.931C292.59 296.292 297.848 296.539 303.092 295.728C313.017 296.176 322.546 294.334 331.776 290.764C333.276 313.734 334.773 336.707 336.274 359.677C327.24 365.43 316.787 367.413 306.846 370.755C306.028 370.703 305.207 370.658 304.389 370.61Z" fill="#2C496B"/>
<path d="M216.369 39.063C214.035 35.8919 210.62 34.0698 207.455 31.9353C201.164 27.689 198.393 21.6753 199.506 14.2966C200.614 6.95325 205.636 2.3818 212.484 0.646572C219.589 -1.15304 226.101 0.772128 230.866 6.82449C235.389 12.5646 234.807 18.8552 232.402 25.1232C231.101 28.5132 229.35 31.71 229.839 35.512C229.842 35.512 229.305 35.7696 229.305 35.7696C224.064 33.2263 220.786 38.3837 216.369 39.063ZM217.4 23.7228C221.742 22.5316 220.41 27.9433 223.771 29.1828C222.811 25.3035 223.178 22.155 225.026 19.1932C225.905 17.7863 226.008 15.8998 224.044 15.198C222.138 14.5187 220.79 15.9256 220.709 17.5964C220.574 20.4519 218.855 21.7815 216.707 22.963C215.697 21.7944 214.766 20.5357 213.646 19.4829C212.683 18.5815 211.521 18.5171 210.533 19.6053C209.634 20.5936 209.284 22.0004 210.224 22.786C212.31 24.5308 214.554 27.013 217.4 23.7228Z" fill="#EBC265"/>
<path d="M282.846 374.985C283.586 361.992 283.753 348.931 285.26 336.028C286.345 326.753 288.331 317.948 276.236 312.375C284.867 312.24 289.168 317.185 289.899 324.776C290.665 332.718 290.942 340.638 290.636 348.593C290.421 357.153 290.211 365.717 289.999 374.283C289.519 374.48 289.04 374.676 288.56 374.872C286.654 374.911 284.748 374.947 282.846 374.985Z" fill="#2C496B"/>
<path d="M216.369 39.063C220.789 38.3837 224.064 33.2263 229.305 35.7664C228.303 39.7777 223.342 38.1712 221.343 41.4453C224.901 41.7737 227.669 40.1865 230.557 39.1145C235.914 44.5648 229.907 47.1854 227.653 50.7395C224.765 51.8341 222.2 49.954 219.444 49.851C219.012 48.7049 218.581 47.5588 218.15 46.416C222.908 46.7797 226.877 44.7934 230.612 42.0988C226.639 44.0819 221.259 41.8509 218.14 46.4031C216.521 44.2043 215.413 41.8831 216.369 39.063Z" fill="#7F818B"/>
<path d="M103.48 76.9643C100.508 68.6326 95.3543 61.4856 91.0179 53.8912C90.2839 52.6067 86.9164 50.1053 91.8484 49.6449C92.3346 50.8071 92.8819 51.921 94.205 52.362C98.2582 59.2772 102.311 66.1923 106.364 73.1043C106.355 73.7031 106.348 74.3018 106.339 74.9006C105.386 75.5864 104.433 76.2753 103.48 76.9643Z" fill="#7F818B"/>
<path d="M29.8439 74.3823C30.8419 74.2343 31.8399 74.025 32.4838 75.1518C37.0649 83.1744 42.4863 90.7237 46.1016 99.2904C45.1358 99.4803 44.1732 99.6703 43.2107 99.8602C42.0453 98.199 40.8799 96.5346 39.7144 94.8735C36.8814 89.9253 34.0452 84.9772 31.2122 80.0291C30.7582 78.149 30.3011 76.2657 29.8439 74.3823Z" fill="#7F818B"/>
<path d="M167.101 150.106C169.193 153.004 155.643 158.647 148.75 154.568C150.199 151.917 152.656 150.637 155.405 149.757C159.358 148.052 165.008 147.207 167.101 150.106Z" fill="#E07868"/>
<path d="M252.143 372.995C258.662 375.104 265.39 373.81 272.012 374.228C274.334 374.377 276.922 373.301 278.899 375.455C269.952 376.488 261.006 376.212 252.059 375.468C252.088 374.641 252.114 373.82 252.143 372.995Z" fill="#2C496B"/>
<path d="M230.557 39.1113C227.669 40.1833 224.901 41.7737 221.343 41.4421C223.342 38.168 228.3 39.7745 229.305 35.7632C229.305 35.7632 229.842 35.5088 229.839 35.5056C230.077 36.7096 230.316 37.9105 230.557 39.1113Z" fill="#315782"/>
<path d="M415.402 26.9808C415.634 26.5494 415.869 26.118 416.1 25.6866C415.865 26.118 415.634 26.5494 415.402 26.9808Z" fill="#E0E2E4"/>
<path d="M438.034 308.663C438.211 308.754 438.385 308.844 438.562 308.937C438.395 308.837 438.227 308.741 438.06 308.641L438.034 308.663Z" fill="#CEE1EC"/>
<path d="M73.5722 150.822C73.4113 149.068 73.9232 147.49 74.8342 146.016C81.1602 143.91 86.279 139.725 91.7776 136.2C98.8473 136.757 100.988 142.99 103.956 147.622C110.157 157.284 118.16 165.023 127.02 172.064C129.927 174.375 132.782 177.057 135.989 172.305C137.296 170.367 139.398 173.049 141.751 171.32C136.308 164.012 132.46 155.996 134.537 146.486C137.75 153.942 139.543 162.325 147.707 166.526C148.068 172.076 153.863 171.458 156.634 174.021C156.296 175.788 153.634 175.344 154.075 177.417C187.666 174.658 201.432 136.738 193.068 116.437C192.607 119.93 192.82 123.468 192.549 126.97C192.285 130.367 192.91 134.275 188.931 136.294C187.598 127.527 184.382 119.666 177.918 113.362C178.078 111.563 178.175 109.802 175.696 109.534C173.398 103.495 168.111 100.63 163.022 97.4972C155.398 92.8067 147.952 95.0763 143.908 103.456C141.24 105.294 140.184 107.844 140.557 111.028C136.337 113.829 135.986 118.333 135.76 122.682C135.438 128.844 135.715 135.044 134.386 141.129C127.062 120.087 130.699 99.9697 149.433 88.0163C165.15 77.988 194.648 81.4263 205.713 102.661C210.285 111.434 210.9 120.68 210.803 130.18C209.145 135.073 207.883 140.15 205.749 144.828C200.45 156.443 193.911 167.18 182.235 173.683C178.027 176.027 177.837 176.297 176.385 179.767C183.155 176.175 190.083 174.633 197.433 175.061C199.526 175.183 201.715 175.209 202.098 177.826C202.436 180.138 200.607 180.727 198.782 181.371C192.173 183.705 185.296 185.553 179.099 188.717C167.561 194.612 156.158 197.255 144.015 190.9C143.59 190.424 143.351 189.322 142.456 190.436C142.981 190.584 143.503 190.736 144.028 190.884C144.552 194.857 151.612 194.354 150.093 199.724C147.517 199.415 144.929 199.196 142.373 198.784C129.569 196.724 116.773 194.612 103.972 192.519C104.053 190.752 103.322 189.274 101.893 188.389C96.3974 184.98 91.9128 180.337 86.9132 176.326C81.9779 169.52 75.8065 163.41 74.6507 154.489C73.9554 153.137 73.7332 152.577 73.5722 150.822ZM133.89 178.473C134.717 184.522 134.856 184.735 138.825 186.438C138.239 183 135.889 180.852 133.89 178.473ZM171.846 182.234C172.068 181.928 172.425 181.519 172.644 181.049C172.68 180.972 172.045 180.376 171.868 180.437C171.363 180.617 170.674 180.92 170.526 181.339C170.262 182.108 170.98 182.205 171.846 182.234Z" fill="#FAFAFA"/>
<path d="M208.414 187.243C218.134 202.042 221.205 219.166 225.38 235.894C226.156 239.003 226.43 242.236 227.225 245.339C228.815 251.549 227.846 257.222 224.163 262.45C214.628 266.107 204.892 265.637 195.135 263.699C188.464 262.373 183.226 257.782 184.356 253.651C185.805 248.349 185.074 243.353 184.112 238.234C192.781 238.318 201.457 237.735 210.233 238.437C208.376 236.756 206.306 235.636 203.917 235.887C200.044 236.289 198.933 234.677 198.251 230.923C197.649 227.613 197.861 223.46 194.185 220.692C194.185 224.619 193.686 228.106 194.32 231.374C195.015 234.966 193.448 235.494 190.611 235.858C188.329 236.151 185.081 234.258 184.118 238.247C181.575 238.337 179.031 238.424 176.491 238.511C174.972 238.124 173.761 237.355 173.14 235.842C177.303 228.215 181.668 220.692 185.567 212.933C189.536 205.03 194.175 197.374 196.036 188.55C200.208 188.54 204.174 186.57 208.414 187.243Z" fill="#FAFAFA"/>
<path d="M113.144 323.408C118.772 322.046 124.544 321.209 129.785 318.495C130.864 317.935 132.151 317.703 132.647 316.477C135.036 310.585 140.692 310.923 145.08 311.258C158.882 312.308 172.58 314.783 186.384 315.665C191.616 316 194.082 318.434 194.732 322.297C196.735 334.154 198.148 346.117 199.506 358.074C199.941 361.908 196.879 361.206 195.061 360.112C191.671 358.071 188.194 357.224 184.263 356.934C178.681 356.525 177.93 352.16 178.056 347.653C178.323 337.992 176.157 328.633 175.104 318.988C172.345 319.809 173.249 321.757 173.233 323.131C173.137 330.816 172.963 338.51 173.269 346.185C173.459 350.975 171.118 351.777 167.307 350.962C162.983 350.042 158.746 348.548 154.384 348.007C149.558 347.408 148.654 344.82 148.795 340.577C149.046 333.224 148.866 325.858 148 318.476C147.073 326.196 145.998 333.903 145.29 341.642C145 344.804 143.4 345.319 140.86 344.949C138.477 344.601 136.111 344.153 133.735 343.767C124.538 342.277 123.111 340.255 124.724 330.803C125.043 328.936 126.485 327.13 124.705 324.721C121.862 328.449 122.32 332.841 121.254 336.688C120.501 339.405 120.494 341.665 116.689 341.497C113.379 341.349 111.136 340.68 111.061 336.871C111.052 336.379 110.427 335.896 110.089 335.41C110.234 334.563 110.379 333.716 110.524 332.87C112.851 332.145 112.942 330.935 111.3 329.341C112.266 326.821 112.587 325.05 113.144 323.408Z" fill="#315782"/>
<path d="M326.184 123.287C326.696 125.229 327.166 127.186 327.726 129.114C330.237 137.791 324.897 145.829 315.947 145.971C311.662 146.038 309.888 148.347 308.066 151.389C306.823 153.459 305.31 155.368 303.923 157.345C300.893 158.446 298.466 160.258 297.02 163.223C290.701 164.746 284.381 166.269 278.062 167.795C277.543 167.798 277.028 167.801 276.51 167.801C259.425 165.895 252.819 160.055 247.558 142.217C251.637 143.511 255.059 143.482 258.127 139.516C260.471 136.487 255.336 133.889 256.17 131.272C256.769 130.747 259.554 130.508 260.062 129.91C262.193 127.392 261.894 124.765 260.139 122.238C259.286 121.008 257.925 120.277 256.495 121.127C253.649 122.814 254.467 125.663 254.757 128.152C254.879 129.214 255.893 130.17 256.502 131.175C250.636 132.952 247.539 130.872 247.413 124.656C247.407 124.263 247.391 123.867 247.378 123.474C248.234 116.414 249.091 109.354 249.95 102.294C252.87 102.738 252.069 105.034 252.22 106.856C252.371 108.717 251.653 110.854 253.871 112.058C253.314 113.024 251.463 114.312 252.49 114.907C255.14 116.45 258.845 115.905 260.841 114.553C263.6 112.686 244.419 112.573 258.865 109.76C264.846 108.726 271.018 110.548 277.025 107.777C279.633 106.573 282.858 108.369 282.884 112.396C282.987 117.438 287.456 114.379 289.539 115.88C290.607 116.649 292.758 117.605 293.701 115.819C294.686 113.948 292.124 113.497 291.377 112.251C295.507 112.461 299.203 110.787 303.008 109.586C303.974 116.063 307.876 121.829 307.544 128.657C307.486 129.874 307.734 131.757 309.434 132.06C311.15 132.366 311.839 130.724 312.277 129.491C314.752 122.479 319.736 121.295 326.184 123.287ZM266.472 139.938C266.272 138.582 272.824 136.461 269.205 135.299C265.654 134.159 267.019 132.298 267.872 130.232C268.371 129.024 269.63 127.91 268.655 126.365C263.172 131.635 263.639 134.523 267.599 140.099C265.847 140.839 263.575 141.226 261.604 141.428C257.664 146.647 262.139 148.543 265.364 150.932C272.811 155.375 281.252 153.301 285.18 146.071C285.778 143.544 289.458 139.349 282.411 140.965C282.321 138.753 281.442 140.421 279.188 139.938C275.808 139.938 269.923 141.483 266.472 139.938ZM288.524 131.085C289.017 130.019 289.741 129.205 289.938 128.084C290.453 125.155 290.089 122.351 286.886 121.124C285.357 120.538 284.236 121.716 283.715 123.136C282.591 126.191 282.768 129.063 285.672 131.056C286.355 131.522 287.549 131.043 288.524 131.085C288.846 133.016 287.7 135.495 287.459 137.642C287.105 140.797 289.284 141.921 291.824 142.198C295.208 142.565 298.913 142.941 300.436 138.792C301.431 136.084 299.808 134.211 297.529 132.936C294.728 131.368 288.042 132.05 288.524 131.085ZM321.5 127.836C316.365 127.759 313.175 132.247 313.098 137.549C313.059 140.202 314.614 141.312 316.89 140.987C321.027 140.398 324.249 138.042 324.501 133.776C324.639 131.339 324.082 127.914 321.5 127.836Z" fill="#EDA386"/>
<path d="M135.612 300.86C134.389 303.381 133.017 305.843 131.974 308.435C128.378 317.352 125.365 319.004 115.939 317.088C114.989 316.895 113.956 317.13 112.961 317.166C107.237 314.703 101.371 312.514 95.8179 309.713C87.9305 305.731 86.6492 299.479 89.7398 291.237C92.6951 283.359 94.8006 275.243 100.457 268.67C102.437 266.368 104.208 263.915 107.076 262.624C107.662 262.263 108.254 261.906 108.847 261.545C110.839 261.474 112.829 261.404 114.822 261.336C115.424 262.305 116.38 262.521 117.42 262.563C118.83 265.73 122.075 265.077 124.57 265.981C137.528 270.827 137.531 270.827 144.819 259.594C144.919 259.44 144.9 259.208 144.935 259.012C147.305 257.859 149.925 256.967 150.379 253.812C152.746 254.669 155.112 255.525 157.478 256.381C157.014 257.196 156.554 258.01 156.094 258.825C147.279 267.659 137.656 276.045 138.68 290.31C136.819 293.581 135.947 297.145 135.612 300.86Z" fill="#AE7F63"/>
<path d="M358.902 173.561C358.999 177.71 363.197 181.821 359.018 186.013C356.465 186.093 355.21 188.135 353.658 189.657C348.752 194.48 344.197 199.702 338.988 204.167C325.305 215.885 318.799 230.462 320.135 248.465C314.305 243.99 312.18 237.165 309.028 230.99C305.333 220.029 307.663 209.099 309.209 198.166C312.171 190.301 315.132 182.436 318.094 174.571C318.944 172.604 321.925 171.887 321.323 169.07C325.875 167.756 327.131 163.426 329.542 160.142C332.336 156.334 334.519 151.653 340.469 152.107C340.974 152.925 341.476 153.739 341.975 154.557C345.407 158.723 348.716 162.995 352.316 167.009C354.37 169.305 355.2 172.91 358.902 173.561Z" fill="#FAFAFA"/>
<path d="M147.71 166.523C139.546 162.325 137.753 153.942 134.54 146.483C134.695 145.43 133.674 140.26 134.801 141.11C136.733 140.582 137.537 148.785 140.976 147.796C142.955 147.226 144.166 145.391 143.905 143.131C143.599 140.485 141.661 138.801 139.514 137.913C136.803 136.792 136.61 139.867 135.538 141.335C135.174 141.319 134.745 141.191 134.384 141.172C135.714 135.084 135.442 128.834 135.76 122.672C135.986 118.323 136.337 113.819 140.557 111.018C148.245 107.564 156.097 106.347 164.49 108.305C169.241 109.412 173.269 112.155 177.921 113.356C184.385 119.659 187.601 127.524 188.934 136.287C187.051 138.589 188.039 141.319 187.904 143.843C187.321 154.756 178.993 165.767 169.274 168.841C161.647 171.259 154.648 169.62 147.71 166.523ZM148.757 148.813C147.691 148.743 146.429 149.013 147.067 150.265C148.811 153.7 152.668 153.665 152.668 153.665C152.668 153.665 160.675 154.241 163.334 153.665C166.312 153.021 168.942 150.983 165.935 147.291C160.06 146.129 154.31 146.344 148.757 148.813ZM171.501 137.362C171.414 133.113 173.111 131.728 172.789 130.441C172.467 129.153 168.765 126.256 168.443 131.407C168.121 136.557 168.158 135.821 171.501 137.362C171.426 138.957 171.138 141.496 170.854 143.067C170.313 146.077 171.904 147.706 174.647 148.186C177.75 148.727 180.899 148.688 182.441 145.24C183.654 142.523 181.971 140.794 179.994 139.081C177.354 136.792 174.824 136.28 171.501 137.362ZM167.786 120.986C171.331 121.14 174.666 123.233 178.265 122.779C175.188 119.276 171.839 117.715 167.786 120.986ZM146.597 132.379C146.365 130.734 146.442 128.126 143.828 128.171C141.053 128.219 141.706 131.056 141.41 132.878C141.104 134.771 141.481 136.957 143.648 137.079C146.352 137.23 146.374 134.726 146.597 132.379ZM147.549 121.317C146.374 119.289 145.177 119.038 144.021 118.848C141.893 118.497 140.068 119.16 138.664 120.805C138.461 121.043 138.384 121.71 138.555 121.89C140.287 123.732 141.806 121.481 143.483 121.565C144.633 121.62 145.798 121.433 147.549 121.317ZM151.892 137.472C150.643 139.316 148.982 141.177 151.281 143.083C151.822 143.531 153.772 143.382 153.908 143.044C154.79 140.839 151.622 139.79 151.892 137.472ZM154.403 133.509C154.075 133.367 153.747 133.222 153.418 133.081C153.277 133.409 152.961 133.805 153.051 134.053C153.135 134.281 153.653 134.355 153.979 134.497C154.12 134.165 154.262 133.837 154.403 133.509Z" fill="#EDA386"/>
<path fill-rule="evenodd" clip-rule="evenodd" d="M170.854 143.067C171.138 141.496 171.426 138.957 171.501 137.362C174.824 136.28 177.354 136.792 179.994 139.081C181.971 140.794 183.654 142.523 182.441 145.24C180.899 148.688 177.75 148.727 174.647 148.186C171.904 147.706 170.313 146.077 170.854 143.067Z" fill="#EDA386"/>
<path d="M266.723 294.093C265.509 293.941 264.299 293.793 263.085 293.642C262.673 293.388 262.448 293.178 261.846 292.882C260.635 292.702 259.428 292.525 258.218 292.345C257.873 292.11 256.997 292.126 256.653 291.891C254.882 291.408 253.917 291.086 252.284 290.867C247.301 284.683 250.008 277.552 250.211 270.875C250.304 267.8 250.791 264.6 250.955 261.445C263.832 264.047 276.909 264.381 289.97 264.932C292.845 265.054 295.234 264.613 295.945 261.301C298.624 261.642 300.764 260.866 302.071 258.358C305.449 257.795 307.612 256.385 306.984 252.377C306.756 250.918 306.463 249.106 308.04 247.918C310.072 250.345 312.1 252.776 314.131 255.203C313.812 257.753 315.081 259.221 317.186 260.541C319.375 261.912 321.729 263.654 321.323 266.719C320.319 274.275 319.134 281.589 313.165 287.493C310.007 290.619 305.249 291.591 303.089 295.744C297.844 296.559 292.59 296.308 287.33 295.947C286.622 295.075 285.859 295.071 285.048 295.802C283.831 295.702 282.611 295.603 281.394 295.506C279.027 295.593 276.774 295.506 274.073 295.136C272.025 295.023 269.981 294.91 267.934 294.801C267.531 294.566 267.125 294.328 266.723 294.093Z" fill="#FAFAFA"/>
<path d="M341.975 154.557C341.473 153.739 340.971 152.925 340.469 152.107C348.652 142.655 349.956 131.085 350.558 119.305C350.68 116.884 350.342 114.399 350.774 112.045C352.174 104.419 350.735 98.7592 342.951 94.8316C335.807 91.2259 339.458 84.0758 339.937 78.4259C340.304 74.1313 343.395 71.6974 348.011 72.0194C352.57 72.3381 350.288 71.1598 353.877 70.4C355.97 70.722 354.817 69.7046 356.7 71.6073C359.933 74.8781 365.628 76.3558 367.199 80.3156C364.633 91.8602 367.488 103.038 369.169 114.37C371.612 130.846 371.435 147.22 363.938 162.692C363.435 163.729 362.463 164.534 361.706 165.448C356.005 162.663 350.326 159.859 345.79 155.243C344.76 154.196 343.656 152.484 341.975 154.557ZM355.014 82.1731C353.616 88.0098 352.293 85.7917 350.89 83.9889C350.22 83.1293 349.206 82.7945 348.195 83.1969C347.879 83.3225 347.548 84.4202 347.715 84.5909C351.681 88.6344 344.985 88.145 345.069 90.4952C347.77 92.5555 350.381 89.0883 352.631 90.3728C357.946 93.4054 356.185 90.0348 355.587 87.4207C355.329 86.3003 355.323 85.1221 355.014 82.1731Z" fill="#EDA386"/>
<path d="M249.941 102.288C249.084 109.348 248.228 116.408 247.368 123.468C246.75 122.885 246.129 122.302 245.511 121.72C240.669 115.2 236.458 108.417 236.275 99.9278C238.222 88.6955 241.673 85.2058 253.43 82.582C259.972 82.5595 265.976 85.3378 270.731 88.8951C282.427 97.6453 295.224 100.002 309.225 98.5596C316.703 99.5962 321.049 105.475 326.458 109.708C327.981 110.899 327.163 112.702 327.491 114.209C328.518 117.444 327.025 120.316 326.184 123.284C319.736 121.295 314.749 122.479 312.264 129.485C311.826 130.718 311.137 132.359 309.421 132.054C307.721 131.751 307.473 129.864 307.531 128.651C307.863 121.826 303.961 116.057 302.995 109.579C303.53 108.321 304.856 106.923 303.816 105.7C302.339 103.955 301.527 106.18 300.478 106.769C293.176 110.864 287.819 110.555 281.265 105.172C279.468 103.698 277.595 102.79 275.876 104.032C267.747 109.901 260.822 107.094 254.287 101.351C252.162 99.4868 250.877 99.5963 249.941 102.288Z" fill="#4A2C30"/>
<path d="M250.836 260.071C248.962 259.372 247.137 258.48 245.208 258.01C235.312 255.589 231.03 249.263 233.087 239.309C234.343 233.234 236.107 227.266 237.64 221.249C238.042 221.233 238.441 221.274 238.834 221.368C239.771 223.625 242.256 224.05 243.843 225.579C248.762 230.324 248.521 232.664 242.366 235.588C249.963 236.644 257.265 233.749 264.692 234.648C272.212 235.555 278.66 234.342 282.491 226.828C283.1 225.633 284.352 224.7 285.456 223.837C287.665 222.111 289.136 222.285 288.862 225.547C288.708 227.411 288.531 229.068 291.18 227.491C291.998 227.372 292.816 227.259 293.637 227.143C295.092 227.269 296.473 227.179 297.407 225.82C298.334 225.923 299.132 225.724 299.641 224.854C299.979 224.832 300.314 224.816 300.652 224.803C301.817 224.861 302.983 224.916 304.145 224.974C304.193 231.454 304.241 237.935 304.286 244.415C301.917 247.734 298.356 249.135 294.689 250.368C279.848 248.401 266.665 255.831 252.519 257.824C251.357 257.988 251.109 259.102 250.836 260.071Z" fill="#EDA386"/>
<path d="M135.612 300.86C135.947 297.141 136.819 293.581 138.677 290.307C140.222 290.181 141.558 289.409 143.348 289.998C154.687 293.729 166.444 292.963 178.127 292.873C181.147 292.85 185.106 293.085 186.069 289.998C187.196 286.382 187.563 282.246 184.076 278.749C179.044 273.701 176.836 267.263 176.781 260.122C178.446 258.744 178.136 261.458 179.215 261.294C178.726 271.66 188.207 277.182 191.11 286.138C195.289 282.236 195.495 277.143 196.207 272.269C196.503 270.254 195.82 268.872 193.419 268.505C188.226 267.717 184.414 264.314 180.467 261.223C181.214 257.856 178.03 256.877 176.582 254.843C176.517 254.585 176.543 254.337 176.652 254.096C176.33 252.776 176.781 251.971 176.99 250.467C177.052 249.618 177.109 248.768 177.171 247.915C177.457 246.82 177.296 247.625 177.863 245.481C177.402 243.156 176.945 240.835 176.485 238.511C179.028 238.421 181.571 238.334 184.112 238.244L184.102 238.234C185.064 243.353 185.795 248.349 184.347 253.651C183.217 257.785 188.458 262.373 195.125 263.699C204.886 265.64 214.618 266.11 224.154 262.45C223.793 268.721 218.117 268.85 214.415 269.336C208.118 270.16 206.859 273.238 207.13 278.662C207.5 286.077 204.957 293.075 203.44 300.213C188.892 304.436 173.98 305.158 158.943 305.138C150.853 305.129 143.339 302.566 135.612 300.86Z" fill="#E0E2E4"/>
<path d="M289.751 58.7428C290.594 58.8459 291.435 58.9489 292.278 59.0487C293.579 61.1509 294.789 63.6137 297.436 60.3396C297.838 60.2044 298.118 60.3364 298.276 60.7324C299.451 64.1642 301.428 65.3167 304.64 62.9763C305.062 62.8732 305.384 63.0084 305.606 63.3819C305.912 64.103 306.041 65.2749 306.553 65.4745C312.708 67.8954 314.373 72.6439 314.698 78.8444C315.087 86.3229 312.084 93.9978 306.868 96.2159C304.93 95.2244 302.854 94.4324 301.077 93.2059C289.471 85.1897 276.88 80.0195 262.654 79.0086C260.577 78.8605 257.58 78.8573 257.017 75.5896C260.838 68.8838 265.004 62.503 272.56 59.3706C274.907 61.7336 276.809 62.2101 277.653 58.1795C280.94 56.9658 284.165 57.4519 287.369 58.5336C288.067 59.6861 288.85 59.8825 289.751 58.7428Z" fill="#325279"/>
<path d="M103.969 192.519C116.769 194.612 129.566 196.724 142.37 198.784C144.926 199.196 147.514 199.415 150.09 199.721C150.917 199.959 151.748 200.197 152.578 200.436C154.168 200.977 156.09 200.523 157.368 202.01C156.551 202.776 155.733 203.542 154.915 204.305C140.676 202.795 126.714 199.644 112.645 197.129C107.878 196.276 105.618 197.303 105.16 202.416C104.497 209.833 103.409 217.218 102.321 224.59C101.065 233.106 100.975 233.128 109.123 234.741C122.365 237.358 135.615 239.924 148.86 242.512C148.451 244.299 148.039 246.089 147.63 247.876C133.13 245.04 118.566 242.496 104.159 239.245C96.8352 237.59 91.0887 239.895 85.178 243.681C88.4617 246.736 93.4742 244.499 96.1946 248.185C94.4465 250.426 90.4319 250.265 90.5543 254.025L90.5639 254.015C81.6303 253.375 72.9863 251.346 64.4905 248.607C71.2221 243.613 79.3059 241.511 87.042 239.168C95.541 236.592 99.2626 232.207 99.4654 223.193C99.6714 214.028 101.59 204.901 102.759 195.758C103.161 194.679 103.564 193.601 103.969 192.519Z" fill="#90949D"/>
<path d="M152.578 200.436C151.747 200.197 150.92 199.959 150.09 199.721C151.609 194.351 144.549 194.853 144.024 190.881L144.011 190.897C156.155 197.252 167.558 194.609 179.096 188.714C185.293 185.549 192.17 183.702 198.779 181.368C200.604 180.724 202.433 180.135 202.095 177.823C201.712 175.206 199.523 175.18 197.43 175.058C190.08 174.629 183.152 176.172 176.382 179.764C177.834 176.291 178.024 176.023 182.231 173.68C193.908 167.177 200.446 156.443 205.746 144.825C207.88 140.147 209.142 135.07 210.8 130.177C214.09 140.833 210.787 150.51 205.99 159.779C203.025 165.506 199.217 170.505 206.174 176.387C209.003 178.779 208.646 183.392 208.411 187.246C204.168 186.573 200.205 188.543 196.036 188.547C193.032 189.342 190.029 190.14 187.028 190.939C185.705 191.248 185.393 192.23 185.386 193.414C185.386 193.414 185.515 193.437 185.512 193.434C178.487 194.473 170.304 193.434 168.092 203.117C167.329 202.905 166.566 202.692 165.803 202.483C166.695 197.851 164.412 196.028 160.23 197.068C157.587 197.722 152.362 193.253 152.578 200.436Z" fill="#E0E2E4"/>
<path d="M306.868 96.2159C312.08 93.9978 315.087 86.3229 314.698 78.8443C314.376 72.6407 312.708 67.8954 306.553 65.4744C306.041 65.2716 305.912 64.0997 305.606 63.3818C309.28 64.074 312.161 66.3919 315.367 68.066C325.962 73.6065 331.258 81.9542 329.642 94.1459C328.757 100.816 331.033 107.825 327.495 114.212C327.166 112.702 327.984 110.899 326.461 109.708C321.053 105.475 316.707 99.5962 309.228 98.5596C308.439 97.7773 307.654 96.995 306.868 96.2159Z" fill="#2C496B"/>
<path d="M306.868 96.2159C307.654 96.9982 308.443 97.7773 309.228 98.5596C295.227 100.002 282.433 97.6421 270.734 88.8952C265.979 85.3378 259.972 82.5563 253.434 82.5853C253.166 81.2718 252.391 80.6311 251.029 80.3961C247.397 79.7716 243.789 79.015 240.173 78.3132C244.58 77.6435 247.072 77.5212 250.533 77.4697C252.919 77.4343 255.259 77.6243 257.02 75.5929C257.583 78.8605 260.581 78.8637 262.657 79.0118C276.883 80.0227 289.474 85.1929 301.08 93.2091C302.854 94.4324 304.93 95.2212 306.868 96.2159Z" fill="#315782"/>
<path d="M271.703 173.912C273.715 173.483 275.728 173.055 277.74 172.627C278.165 177.182 277.794 182.401 283.992 183.367C289.947 184.294 293.163 180.344 295.646 175.727C296.386 174.353 296.66 172.727 297.149 171.217C300.446 170.798 303.404 172.376 306.556 172.817C304.048 179.336 299.229 184.815 297.964 191.892C294.905 193.07 291.728 191.795 288.64 192.342C281.632 191.93 274.627 191.428 267.612 191.151C264.759 191.038 264.012 190.124 265.284 187.51C267.476 183 269.569 178.444 271.703 173.912Z" fill="#FAFAFA"/>
<path d="M250.836 260.071C251.109 259.102 251.357 257.988 252.523 257.824C266.668 255.831 279.852 248.404 294.693 250.368C295.555 253.96 293.36 257.901 295.945 261.297C295.23 264.61 292.842 265.051 289.97 264.929C276.909 264.378 263.832 264.04 250.955 261.442C250.916 260.988 250.874 260.528 250.836 260.071Z" fill="#E07868"/>
<path d="M271.703 173.911C269.569 178.444 267.476 183 265.284 187.507C264.012 190.121 264.759 191.035 267.612 191.148C274.626 191.425 281.632 191.927 288.64 192.339C288.64 192.973 288.637 193.607 288.637 194.242C279.729 195.404 270.606 191.296 261.788 194.905C272.235 195.987 282.665 196.778 293.102 196.898C298.933 196.962 300.974 199.248 300.706 204.888C300.391 211.513 300.645 218.165 300.655 224.803C300.317 224.816 299.979 224.832 299.641 224.854C299.631 218.644 299.535 212.431 299.644 206.221C299.715 202.261 298.382 200.014 294.033 200.642L293.794 200.764C291.66 198.047 288.647 198.089 285.608 198.095C274.598 198.124 263.591 198.114 252.58 198.121C252.88 194.921 253.182 191.718 253.482 188.518L253.424 188.53C254.712 188.048 254.583 186.866 254.753 185.836C257.387 179.561 260.867 174.237 268.404 173.216C269.662 173.049 270.75 172.962 271.703 173.911Z" fill="#90949D"/>
<path d="M85.4741 112.474C86.1148 117.148 87.5635 121.739 86.9422 126.549C85.3293 131.709 80.4809 133.039 76.4793 135.376C69.0877 139.7 69.5738 131.4 66.3352 129.069C66.0132 128.838 65.6398 128.683 65.2921 128.493C65.2213 127.836 65.1472 127.183 65.0764 126.526C65.1311 126.127 65.0861 125.737 64.9476 125.357C64.8929 123.699 64.8382 122.045 64.7867 120.387C65.2728 119.202 65.7589 118.017 66.2418 116.833C67.4523 116.363 68.2474 115.5 68.6627 114.28C69.6865 113.906 69.9859 113.018 70.2273 112.087C70.5428 112.123 70.839 112.068 71.1191 111.926C73.0539 111.791 74.6604 110.977 75.9867 109.579C77.2069 109.476 78.427 109.377 79.6471 109.277C81.5916 110.342 83.5329 111.408 85.4741 112.474ZM73.1956 128.432C74.3674 126.413 76.4632 127.366 78.3594 127.353C78.1212 125.106 79.5699 123.728 80.9574 122.318C79.1127 121.385 76.9268 119.318 75.4942 119.749C72.262 120.725 73.8362 125.225 71.4121 127.337C70.9871 127.704 71.9336 128.638 73.1956 128.432ZM69.973 122.103C69.6768 122.28 69.2165 122.402 69.1617 122.624C69.0941 122.895 69.2873 123.423 69.5159 123.529C70.0857 123.802 70.5718 123.529 70.5718 122.869C70.575 122.618 70.1951 122.37 69.973 122.103Z" fill="#EDA386"/>
<path d="M240.17 78.3068C243.788 79.0086 247.397 79.7651 251.026 80.3897C252.387 80.6247 253.163 81.2653 253.43 82.5788C241.67 85.2026 238.222 88.6891 236.275 99.9246C232.08 98.9427 228.226 97.185 224.971 94.3777C219.444 89.6099 220.41 83.3547 227.212 80.6344C231.314 78.9989 235.595 77.6468 240.17 78.3068Z" fill="#2C496B"/>
<path d="M253.479 188.521C253.179 191.721 252.877 194.924 252.574 198.127C251.821 200.075 248.582 200.162 248.962 202.953C247.639 209.527 250.102 216.165 248.63 222.736C248.157 222.72 247.684 222.707 247.207 222.691C244.271 223.167 242.098 218.805 238.831 221.371C238.438 221.274 238.039 221.236 237.636 221.252C235.389 210.802 242.855 203.774 247.021 195.706C248.382 193.076 248.901 188.666 253.479 188.521Z" fill="#FAFAFA"/>
<path d="M306.559 172.814C303.407 172.373 300.449 170.795 297.149 171.214C297.004 170.103 296.856 168.989 296.711 167.875C296.814 166.324 296.914 164.775 297.017 163.223C298.463 160.258 300.893 158.443 303.919 157.342C314.186 157.493 315.548 158.407 319.021 167.701C319.459 168.873 320.286 169.06 321.32 169.066C321.922 171.883 318.941 172.601 318.091 174.565C314.72 170.853 310.413 173.329 306.559 172.814ZM308.198 167.875C309.598 166.233 313.445 169.836 313.5 165.689C313.539 162.647 310.22 161.942 307.589 161.971C304.782 162 300.906 162.744 301.244 165.844C301.595 169.054 305.651 166.658 308.198 167.875Z" fill="#7F818B"/>
<path d="M65.2953 128.493C65.643 128.683 66.0197 128.841 66.3384 129.069C69.5771 131.4 69.0909 139.696 76.4825 135.376C80.481 133.036 85.3325 131.709 86.9454 126.549C88.1945 129.948 89.3181 133.409 91.7776 136.2C86.2758 139.725 81.157 143.91 74.8342 146.016C72.9284 139.481 64.8189 136.319 65.2953 128.493Z" fill="#E0E2E4"/>
<path d="M296.711 167.878C296.856 168.992 297.004 170.103 297.149 171.217C296.663 172.727 296.386 174.353 295.646 175.727C293.164 180.344 289.944 184.294 283.992 183.367C277.794 182.401 278.165 177.182 277.74 172.627C278.026 172.173 278.313 171.722 278.602 171.268C279.629 172.559 280.85 172.402 282.379 172.208C287.423 171.568 291.86 169.063 296.711 167.878Z" fill="#EDA386"/>
<path d="M247.368 123.468C247.243 122.553 247.986 124.05 247.368 123.468C247.381 123.864 247.397 124.256 247.404 124.652C247.529 130.866 250.858 130.924 256.331 130.602C258.424 131.889 257.831 132.266 258.424 132.372C258.746 134.143 260.465 136.49 258.121 139.516C255.053 143.482 251.631 143.511 247.552 142.217C244.902 132.694 246.834 130.119 247.368 123.468Z" fill="#E07868"/>
<path d="M40.4742 174.256C40.0364 173.11 39.502 171.127 38.5587 169.363C36.817 166.108 37.1905 163.932 41.1728 163.31C43.0787 163.014 45.1841 160.368 46.9 163.658C48.5741 166.868 45.8698 167.479 43.9769 168.384C41.7909 169.43 42.6022 171.056 43.0143 172.511C43.7773 175.212 44.6046 177.913 45.6445 180.518C46.9741 183.859 45.535 186.119 42.8115 187.536C40.3969 188.791 37.6026 187.871 36.4404 185.781C35.143 183.447 35.7257 180.65 38.1563 178.721C39.37 177.765 41.1631 177.16 40.4742 174.256Z" fill="#EDA386"/>
<path d="M43.2139 99.8635C44.1765 99.6735 45.139 99.4836 46.1048 99.2937C48.8928 105.388 52.2828 105.185 57.5367 101.515C63.0064 97.6969 68.7272 93.8594 76.0383 93.4602C78.0858 93.3475 79.9788 90.3664 81.9426 88.6988C82.4158 89.1946 82.8858 89.6903 83.3591 90.1861C79.0934 97.0304 70.3207 96.3254 64.8092 101.254C62.3142 103.485 58.6893 104.406 55.956 106.431C51.3331 109.86 47.8497 110.362 45.6509 103.994C45.1358 102.513 44.0413 101.235 43.2139 99.8635Z" fill="#315782"/>
<path d="M64.4873 248.61C72.9864 251.346 81.6303 253.374 90.5607 254.018C93.0267 256.024 95.995 256.098 98.9761 256.526C102.727 257.067 107.243 256.6 108.847 261.548C108.254 261.906 107.662 262.266 107.076 262.627C106.538 260.045 104.481 260.129 102.453 259.762C90.2002 257.553 77.9474 255.316 65.7428 252.863C61.6639 252.042 61.6382 251.443 64.4873 248.61Z" fill="#7F818B"/>
<path d="M36.8202 126.539C39.8657 126.903 42.1643 125.634 42.6988 128.329C43.1044 130.383 41.4464 131.165 39.7627 131.407C36.2858 131.912 37.0359 134.053 37.5897 136.332C38.2979 139.246 39.1832 142.195 39.3024 145.156C39.4215 148.118 37.345 149.989 34.4315 150.378C32.1168 150.687 30.4846 149.267 30.0339 147.101C29.4576 144.326 30.8484 142.098 33.588 141.805C36.2118 141.525 35.9768 140.44 35.4585 138.669C34.8371 136.551 34.3864 134.381 33.7265 132.273C32.4291 128.103 33.0472 125.592 36.8202 126.539Z" fill="#62A4D1"/>
<path d="M296.711 167.879C291.86 169.063 287.423 171.568 282.379 172.209C280.853 172.402 279.629 172.559 278.602 171.268C278.3 170.528 278 169.791 277.701 169.05C277.82 168.632 277.939 168.213 278.058 167.795C284.378 166.269 290.697 164.746 297.017 163.223C296.914 164.775 296.814 166.327 296.711 167.879Z" fill="#E07868"/>
<path d="M83.3558 90.1861C82.8826 89.6903 82.4125 89.1945 81.9393 88.6987C87.0774 84.3559 92.7466 80.9884 99.3173 79.2854C99.6714 79.0826 100.026 78.8765 100.38 78.6737C101.413 78.1039 102.443 77.5341 103.48 76.9643C104.433 76.2753 105.386 75.5864 106.339 74.8974L106.925 74.9168L106.966 75.052C107.408 77.3248 106.519 78.8025 104.43 79.8166C97.3825 83.2259 90.3772 86.7221 83.3558 90.1861Z" fill="#325279"/>
<path d="M135.519 141.226C135.519 139.616 136.807 136.796 139.514 137.916C141.661 138.805 143.603 140.488 143.905 143.135C144.166 145.395 142.952 147.23 140.976 147.799C137.537 148.788 136.25 145.089 135.519 143.514C135.503 142.732 135.535 142.005 135.519 141.226Z" fill="#E07868"/>
<path d="M85.4741 112.474C83.5329 111.408 81.5916 110.342 79.6471 109.274C82.9051 106.389 84.0351 107.007 85.4741 112.474Z" fill="#EDA386"/>
<path d="M277.656 58.1762C276.812 62.2068 274.91 61.7335 272.563 59.3673C274.079 58.2051 275.779 57.8124 277.656 58.1762Z" fill="#2C496B"/>
<path d="M304.637 62.9762C301.424 65.3167 299.448 64.1641 298.273 60.7323C300.603 60.8933 302.712 61.6788 304.637 62.9762Z" fill="#2C496B"/>
<path d="M75.99 109.579C74.6668 110.98 73.0572 111.791 71.1223 111.926C71.7759 109.135 72.7384 106.985 75.99 109.579Z" fill="#EDA386"/>
<path d="M297.436 60.3396C294.789 63.6136 293.579 61.1508 292.278 59.0486C293.997 59.48 295.717 59.9082 297.436 60.3396Z" fill="#2C496B"/>
<path d="M66.245 116.833C65.7589 118.017 65.276 119.202 64.7899 120.387C63.1384 118.33 63.8209 117.225 66.245 116.833Z" fill="#EDA386"/>
<path d="M111.306 329.341C112.948 330.935 112.858 332.149 110.53 332.87C110.791 331.695 111.049 330.516 111.306 329.341Z" fill="#315782"/>
<path d="M289.751 58.7428C288.85 59.8825 288.07 59.6861 287.372 58.5303C288.222 57.9605 288.998 58.2245 289.751 58.7428Z" fill="#2C496B"/>
<path d="M70.2306 112.087C69.9891 113.018 69.6897 113.909 68.666 114.28C68.74 113.23 69.0426 112.342 70.2306 112.087Z" fill="#EDA386"/>
<path d="M254.754 185.839C254.58 186.869 254.712 188.054 253.424 188.534C253.385 187.401 253.698 186.438 254.754 185.839Z" fill="#FAFAFA"/>
<path d="M64.9476 125.357C65.0893 125.737 65.1311 126.124 65.0764 126.526C64.8865 126.259 64.6772 126.001 64.5291 125.715C64.513 125.676 64.8027 125.48 64.9476 125.357Z" fill="#EDA386"/>
<path d="M278.058 167.792C277.939 168.21 277.82 168.629 277.701 169.047C277.302 168.632 276.903 168.213 276.503 167.798C277.025 167.798 277.54 167.795 278.058 167.792Z" fill="#FAFAFA"/>
<path d="M351.665 202.148C354.051 213.938 357.055 225.617 357.898 237.674C358.053 239.876 357.917 242.094 357.917 244.306C353.014 243.549 348.362 245.645 343.514 245.574C342.181 245.555 341.051 246.079 341.441 247.731C343.208 255.248 340.755 263.052 343.15 270.553C344.741 275.536 347.931 277.256 352.754 275.234C354.032 274.696 355.268 274.062 356.523 273.473C355.316 281.721 350.317 286.91 341.193 289.17C338.659 289.798 336.029 290.043 333.444 290.465C336.013 283.495 333.882 276.541 333.438 269.571C333.27 266.954 332.597 265.386 329.98 264.014C325.73 261.793 321.101 260.071 317.524 256.668C319.102 254.994 318.313 251.063 322.289 251.678C325.029 253.548 327.771 255.416 331.229 257.775C330.743 247.396 330.614 237.745 332.33 228.418C334.426 217.031 342.832 209.379 351.108 201.978C351.183 201.913 351.475 202.087 351.665 202.148Z" fill="#7F818B"/>
<path d="M351.665 202.148C351.475 202.087 351.182 201.913 351.105 201.981C342.832 209.382 334.426 217.035 332.327 228.421C330.608 237.748 330.74 247.399 331.226 257.779C327.765 255.419 325.025 253.552 322.286 251.681C321.571 250.609 320.853 249.537 320.135 248.465C318.799 230.459 325.305 215.885 338.988 204.167C344.197 199.705 348.752 194.48 353.658 189.657C355.207 188.135 356.462 186.094 359.018 186.013C360.998 189.699 357.872 191.409 355.928 193.324C353.394 195.819 351.147 198.263 351.665 202.148Z" fill="#E0E2E4"/>
<path d="M317.518 256.671C321.098 260.074 325.724 261.793 329.973 264.014C332.591 265.383 333.264 266.954 333.431 269.571C333.875 276.541 336.007 283.495 333.437 290.464C332.884 290.568 332.33 290.674 331.773 290.777C322.543 294.347 313.014 296.188 303.086 295.741C305.249 291.588 310.004 290.616 313.162 287.49C319.131 281.586 320.319 274.274 321.32 266.715C321.725 263.651 319.372 261.909 317.183 260.538C315.078 259.218 313.809 257.75 314.128 255.2C315.261 255.696 316.391 256.182 317.518 256.671Z" fill="#E0E2E4"/>
<path d="M356.52 273.476C355.265 274.065 354.028 274.699 352.75 275.237C347.928 277.262 344.737 275.543 343.147 270.556C340.752 263.055 343.205 255.248 341.438 247.734C341.048 246.083 342.181 245.555 343.511 245.577C348.359 245.648 353.011 243.552 357.914 244.309C359.611 254.134 363.667 264.072 356.52 273.476Z" fill="#90949D"/>
<path d="M341.975 154.557C343.656 152.484 344.76 154.196 345.79 155.246C350.326 159.862 356.005 162.666 361.707 165.451C362.109 168.616 359.43 170.718 358.902 173.561C355.197 172.907 354.37 169.305 352.312 167.009C348.716 162.995 345.407 158.723 341.975 154.557Z" fill="#E07868"/>
<path d="M106.925 74.9168L106.339 74.8975C106.348 74.3019 106.355 73.7031 106.364 73.1043C107.018 73.5647 107.314 74.1345 106.925 74.9168Z" fill="#CEE1EC"/>
<path d="M75.4781 53.888C75.3654 57.7029 71.1577 57.9347 70.7875 61.0156C74.0262 62.87 75.6004 57.6901 79.2512 59.1066C76.5695 61.9138 74.1839 64.47 71.7308 66.9521C71.0451 67.6443 69.664 68.5038 69.2648 67.3159C68.5501 65.1911 65.4434 64.1158 66.8052 61.0478C68.4793 57.2747 71.5312 55.5427 75.4781 53.888Z" fill="#E0E2E4"/>
<path d="M56.9315 68.198C51.1946 69.2797 46.2723 72.6407 40.5547 73.5872C45.564 70.4032 50.3351 66.5851 56.9315 68.198Z" fill="#E0E2E4"/>
<path d="M67.8096 86.3326C61.7444 87.3305 56.7866 91.2066 51.1173 93.0578C55.515 87.63 61.4772 86.3197 67.8096 86.3326Z" fill="#E0E2E4"/>
<path d="M38.2432 68.2205C42.8179 64.0965 48.059 61.9846 54.5459 63.5847C49.1535 65.1718 43.7644 66.7622 38.372 68.3493L38.2432 68.2205Z" fill="#E0E2E4"/>
<path d="M82.1163 63.4591C80.526 67.2773 76.0221 68.5972 74.4221 72.4379C74.0326 73.3747 73.0507 74.3019 72.0527 73.7224C70.7295 72.953 71.1126 71.5622 71.9819 70.6318C74.8438 67.567 77.4097 64.0451 82.0101 63.3561L82.1163 63.4591Z" fill="#E0E2E4"/>
<path d="M58.9049 72.557C53.7959 74.0604 49.2952 77.1091 43.8513 79.0375C46.7616 74.6914 52.0767 72.3348 58.9049 72.557Z" fill="#E0E2E4"/>
<path d="M65.4273 81.7224C60.7721 82.054 56.8896 84.813 52.4019 85.4826C56.0783 82.0089 60.3375 80.3768 65.4273 81.7224Z" fill="#E0E2E4"/>
<path d="M63.383 77.1993C59.7806 79.8681 56.059 79.0665 52.7399 79.8874C55.5536 77.0479 58.8953 76.3204 63.383 77.1993Z" fill="#E0E2E4"/>
<path d="M78.7393 45.9169C77.7638 48.5342 75.4781 48.9109 72.3296 50.4433C73.8749 46.4417 76.6081 46.6316 78.7393 45.9169Z" fill="#E0E2E4"/>
<path d="M66.0744 57.1685C65.8169 58.3404 65.2116 59.3416 63.7983 59.348C62.6973 59.3512 61.8764 58.6172 61.8764 57.542C61.8732 56.0418 63.2929 55.7649 64.3585 55.4462C65.6301 55.0663 66.0841 55.9162 66.0744 57.1685Z" fill="#E0E2E4"/>
<path d="M77.4837 53.2313C78.2854 50.7267 79.7437 50.6398 81.5111 50.4144C81.2375 52.9673 79.7308 53.0993 77.4837 53.2313Z" fill="#E0E2E4"/>
<path d="M49.5849 80.8918C49.2533 82.6818 48.2843 83.6219 46.504 83.5349C46.3302 83.5253 45.9825 82.8653 46.0565 82.611C46.5909 80.8629 47.6952 80.1546 49.5849 80.8918Z" fill="#E0E2E4"/>
<path d="M85.7575 68.3139C84.7691 69.7594 83.9256 71.3948 81.347 71.4527C81.4307 68.3171 83.5747 68.301 85.6512 68.2076L85.7575 68.3139Z" fill="#E0E2E4"/>
<path d="M81.9586 77.9172C82.1872 76.5264 82.5091 75.1678 84.1671 74.8491C84.8592 74.7171 85.326 75.1775 85.1908 75.8729C84.8689 77.5276 83.5071 77.8463 82.1164 78.0749L81.9586 77.9172Z" fill="#E0E2E4"/>
<path d="M77.1039 75.4673C77.3292 74.4146 76.8463 73.0335 78.2789 72.5474C78.5204 72.4637 79.2898 73.0947 79.3574 73.4746C79.631 75.0295 78.4592 75.3772 77.2777 75.6412L77.1039 75.4673Z" fill="#E0E2E4"/>
<path d="M91.8517 70.7767C91.1853 71.7135 90.6605 72.8918 89.1957 72.5988C88.98 72.557 88.6484 71.9614 88.7257 71.7586C89.2826 70.2873 90.6702 70.8733 91.7326 70.6382L91.8517 70.7767Z" fill="#E0E2E4"/>
<path d="M48.9249 86.9957C49.2598 87.1374 49.5946 87.2822 49.9262 87.4239C49.7813 87.7587 49.7105 88.277 49.469 88.3704C49.2276 88.4669 48.8219 88.1386 48.4871 87.9937C48.632 87.6621 48.7769 87.3305 48.9249 86.9957Z" fill="#E0E2E4"/>
<path d="M79.7147 80.4733C79.4958 81.3297 79.4668 82.3631 78.1598 82.2504C78.0181 82.2375 77.796 82.0154 77.7831 81.8737C77.6704 80.5699 78.7006 80.5377 79.5602 80.3188L79.7147 80.4733Z" fill="#E0E2E4"/>
<path d="M77.2777 75.6412C77.0974 76.4009 77.0588 77.3023 76.0318 77.3957C75.8161 77.415 75.33 76.9321 75.3493 76.7164C75.4426 75.6894 76.3441 75.6508 77.1038 75.4705C77.1038 75.4673 77.2777 75.6412 77.2777 75.6412Z" fill="#E0E2E4"/>
<path d="M91.7358 70.6383C92.1704 70.355 92.6018 70.0653 93.0493 69.8077C93.0686 69.7981 93.2553 70.0749 93.3648 70.2198C92.8593 70.4065 92.3571 70.59 91.8517 70.7767L91.7358 70.6383Z" fill="#E0E2E4"/>
<path d="M83.9095 55.678C83.9997 55.8389 84.1639 56.0031 84.151 56.1544C84.1381 56.3025 83.945 56.4345 83.8291 56.573C83.8548 56.2736 83.8838 55.9742 83.9095 55.678Z" fill="#E0E2E4"/>
<path d="M90.242 66.0507C90.0939 66.0925 89.8492 66.2084 89.8106 66.1601C89.7076 66.0314 89.6915 65.8318 89.64 65.6612C89.7913 65.6193 90.0327 65.5034 90.0714 65.5517C90.1776 65.6805 90.1905 65.8768 90.242 66.0507Z" fill="#E0E2E4"/>
<path d="M85.3582 61.7304C85.4098 61.5823 85.458 61.3119 85.516 61.3087C85.6834 61.3022 85.8572 61.4052 86.0279 61.4632C85.9764 61.6113 85.9281 61.8817 85.8701 61.8849C85.6995 61.8914 85.5289 61.7883 85.3582 61.7304Z" fill="#E0E2E4"/>
<path d="M80.9317 79.2596C80.526 79.6653 80.1204 80.0677 79.7147 80.4733L79.5602 80.3188C79.9658 79.9132 80.3683 79.5075 80.7739 79.1019L80.9317 79.2596Z" fill="#E0E2E4"/>
<path d="M100.38 78.6737C100.026 78.8765 99.6714 79.0826 99.3173 79.2854C99.6714 79.0826 100.026 78.8797 100.38 78.6737Z" fill="#7F818B"/>
<path d="M38.372 68.3493C38.2561 68.507 38.1402 68.6616 38.0243 68.8193C38.0983 68.6197 38.1691 68.4201 38.2432 68.2205L38.372 68.3493Z" fill="#E0E2E4"/>
<path d="M85.6512 68.2076C85.7639 68.0499 85.8766 67.8889 85.986 67.7312C85.9088 67.9243 85.8315 68.1207 85.7575 68.3139L85.6512 68.2076Z" fill="#E0E2E4"/>
<path d="M80.7739 79.1019C81.1699 78.706 81.5659 78.3132 81.9586 77.9172L82.1164 78.075C81.7204 78.4709 81.3244 78.8637 80.9284 79.2597C80.9316 79.2597 80.7739 79.1019 80.7739 79.1019Z" fill="#E0E2E4"/>
<path d="M82.0101 63.3529C82.1196 63.1952 82.2323 63.0374 82.3417 62.8797C82.2645 63.0728 82.1904 63.2628 82.1132 63.456C82.1164 63.4592 82.0101 63.3529 82.0101 63.3529Z" fill="#E0E2E4"/>
<path d="M285.051 295.802C285.862 295.071 286.625 295.075 287.333 295.947C286.57 295.899 285.811 295.851 285.051 295.802Z" fill="#E0E2E4"/>
<path d="M216.707 22.9598C218.855 21.7848 220.574 20.452 220.709 17.5996C220.789 15.9288 222.138 14.5219 224.044 15.2012C226.008 15.903 225.905 17.7864 225.026 19.1964C223.178 22.155 222.811 25.3035 223.771 29.186C220.41 27.9498 221.742 22.5349 217.4 23.7261C217.123 23.5104 216.891 23.256 216.707 22.9598Z" fill="#AE7F63"/>
<path d="M217.4 23.7228C214.554 27.013 212.31 24.5277 210.224 22.7828C209.284 21.9973 209.634 20.5904 210.533 19.6021C211.521 18.5139 212.683 18.5783 213.646 19.4798C214.769 20.5325 215.696 21.7912 216.707 22.9599C216.891 23.256 217.123 23.5104 217.4 23.7228Z" fill="#AE7F63"/>
<path d="M218.143 46.3998C221.26 41.8477 226.639 44.0787 230.615 42.0956C226.88 44.7902 222.908 46.7797 218.153 46.4127C218.15 46.4127 218.143 46.3998 218.143 46.3998Z" fill="#315782"/>
<path d="M147.71 166.523C154.645 169.62 161.644 171.259 169.274 168.844C178.993 165.77 187.321 154.76 187.904 143.846C188.039 141.322 187.054 138.592 188.934 136.29C192.913 134.269 192.285 130.363 192.553 126.967C192.826 123.464 192.614 119.926 193.071 116.433C201.435 136.735 187.672 174.655 154.078 177.414C153.637 175.341 156.3 175.785 156.638 174.018C153.869 171.455 148.074 172.073 147.71 166.523Z" fill="#E0E2E4"/>
<path d="M177.921 113.359C173.269 112.158 169.245 109.415 164.49 108.308C156.097 106.35 148.245 107.571 140.557 111.022C140.184 107.841 141.24 105.288 143.912 103.45C144.868 103.199 145.901 103.109 146.761 102.674C157.414 97.2815 160.031 97.6357 168.971 105.987C170.912 107.799 172.94 109.325 175.696 109.528C178.178 109.798 178.082 111.559 177.921 113.359Z" fill="#F0EAD9"/>
<path d="M175.699 109.528C172.94 109.322 170.915 107.799 168.974 105.987C160.034 97.6356 157.42 97.2815 146.764 102.674C145.904 103.108 144.868 103.199 143.915 103.45C147.958 95.0666 155.405 92.8002 163.025 97.4908C168.115 100.623 173.398 103.488 175.699 109.528Z" fill="#E0E2E4"/>
<path d="M133.89 178.473C135.889 180.852 138.236 183 138.825 186.438C134.856 184.735 134.717 184.526 133.89 178.473Z" fill="#E0E2E4"/>
<path d="M171.846 182.233C170.98 182.208 170.262 182.111 170.529 181.342C170.674 180.923 171.363 180.621 171.872 180.44C172.049 180.379 172.683 180.975 172.647 181.052C172.425 181.519 172.068 181.924 171.846 182.233Z" fill="#E0E2E4"/>
<path d="M144.028 190.884C143.503 190.736 142.981 190.584 142.457 190.436C143.355 189.319 143.59 190.424 144.015 190.9C144.015 190.897 144.028 190.884 144.028 190.884Z" fill="#E0E2E4"/>
<path d="M147.63 247.879C148.039 246.092 148.451 244.302 148.863 242.512C150.067 235.881 155.929 235.98 160.62 234.387C163.849 235.578 164.709 233.296 165.568 231.016C166.07 231.042 166.569 231.071 167.068 231.1C168.105 233.943 170.368 235.217 173.14 235.839C173.761 237.352 174.972 238.121 176.491 238.508C176.948 240.832 177.409 243.156 177.869 245.481C177.779 246.176 177.457 246.981 177.174 247.915C177.113 248.764 177.055 249.614 176.994 250.464C176.881 251.675 176.768 252.885 176.659 254.096C176.549 254.337 176.524 254.585 176.588 254.846C172.796 255.786 168.913 255.663 165.246 254.694C162.146 253.874 159.767 254.418 157.481 256.378C155.115 255.522 152.749 254.665 150.379 253.809C150.376 253.809 150.173 253.812 150.173 253.812C149.826 253.484 149.475 253.152 149.127 252.824C148.818 251.549 149.079 250.088 147.888 249.106C147.801 248.697 147.717 248.288 147.63 247.879Z" fill="#EDA386"/>
<path d="M173.14 235.839C170.368 235.217 168.105 233.943 167.068 231.1C168.276 229.014 169.483 226.928 170.687 224.841C177.322 215.171 182.074 204.611 185.515 193.434L185.386 193.411C186.539 192.986 186.632 191.859 187.028 190.935C190.032 190.137 193.036 189.342 196.036 188.543C194.175 197.368 189.536 205.023 185.567 212.927C181.671 220.685 177.303 228.209 173.14 235.839Z" fill="#AE7F63"/>
<path d="M184.118 238.244C185.077 234.255 188.329 236.148 190.611 235.855C193.444 235.491 195.012 234.963 194.32 231.37C193.689 228.103 194.185 224.616 194.185 220.689C197.858 223.457 197.649 227.61 198.251 230.92C198.933 234.677 200.044 236.286 203.917 235.884C206.306 235.636 208.379 236.753 210.233 238.434C201.454 237.732 192.781 238.318 184.112 238.231C184.108 238.234 184.118 238.244 184.118 238.244Z" fill="#E0E2E4"/>
<path d="M249.941 102.288C250.877 99.5963 252.162 99.49 254.284 101.354C260.819 107.097 267.744 109.905 275.872 104.036C277.595 102.793 279.465 103.701 281.262 105.175C287.819 110.558 293.173 110.867 300.475 106.772C301.527 106.183 302.335 103.958 303.813 105.703C304.85 106.927 303.527 108.324 302.992 109.583C299.187 110.783 295.491 112.457 291.364 112.248C288.528 111.875 285.669 110.465 282.871 112.393C282.845 108.369 279.62 106.569 277.012 107.773C271.005 110.545 263.896 110.481 262.287 113.056C260.622 113.822 255.526 111.289 253.859 112.052C251.64 110.848 252.358 108.71 252.207 106.849C252.059 105.027 252.861 102.732 249.941 102.288Z" fill="#E07868"/>
<path d="M288.685 131.246C291.866 130.843 294.725 131.368 297.532 132.939C299.811 134.214 301.431 136.087 300.439 138.795C298.916 142.945 295.211 142.568 291.827 142.201C289.287 141.927 287.108 140.804 287.462 137.646C287.704 135.498 287.576 131.326 288.56 131.242C289.543 131.159 288.685 131.246 288.685 131.246Z" fill="#E07868"/>
<path d="M321.5 127.836C324.085 127.914 324.639 131.339 324.497 133.776C324.25 138.042 321.024 140.398 316.887 140.987C314.611 141.312 313.056 140.202 313.094 137.549C313.175 132.247 316.362 127.759 321.5 127.836Z" fill="#E07868"/>
<path d="M285.183 146.074C281.252 153.305 272.811 155.378 265.368 150.935C266.932 148.047 269.585 146.653 272.553 145.694C276.822 143.836 280.985 145.536 285.183 146.074Z" fill="#E07868"/>
<path d="M261.643 141.434C263.757 140.722 264.684 140.814 266.794 140.099C267.68 140.114 269.928 140.077 270.818 140.099C275.164 140.205 279.064 139.87 283.256 139.532C285.028 139.39 286.484 139.303 286.593 141.435C282.855 144.219 277.443 142.327 273.499 144.631C268.863 145.177 264.927 144.068 261.643 141.434Z" fill="#F0EAD9"/>
<path d="M258.272 131.487C257.677 131.381 256.975 131.407 256.492 131.168C255.887 130.164 254.873 129.204 254.75 128.145C254.461 125.657 253.646 122.808 256.489 121.121C257.918 120.274 259.28 121.005 260.133 122.231C261.891 124.759 262.19 127.386 260.056 129.903C259.547 130.505 258.871 130.962 258.272 131.487Z" fill="#4A2C30"/>
<path d="M261.604 141.432C264.328 144.168 267.586 145.321 271.43 144.751C271.806 145.063 272.18 145.379 272.553 145.694C269.582 146.653 266.929 148.044 265.368 150.935C262.139 148.546 257.661 146.65 261.604 141.432Z" fill="#4A2C30"/>
<path d="M288.524 131.085C287.365 131.413 286.355 131.526 285.672 131.056C282.772 129.063 282.591 126.191 283.715 123.136C284.236 121.72 285.357 120.538 286.886 121.124C290.089 122.351 290.453 125.155 289.938 128.084C289.741 129.205 289.49 130.28 288.524 131.085Z" fill="#4A2C30"/>
<path d="M282.874 112.39C285.144 110.32 288.203 111.608 291.367 112.245C293.192 113.217 294.677 113.942 293.691 115.812C292.748 117.599 290.601 116.643 289.529 115.873C287.443 114.373 282.978 117.431 282.874 112.39Z" fill="#4A2C30"/>
<path d="M253.862 112.052C255.526 111.286 255.687 111.286 258.585 111.286C261.321 112.052 263.594 112.683 260.835 114.55C258.839 115.902 255.133 116.446 252.484 114.904C251.454 114.302 253.305 113.014 253.862 112.052Z" fill="#4A2C30"/>
<path d="M272.553 145.694C272.18 145.378 271.806 145.066 271.43 144.751C275.164 142.835 278.866 142.674 282.408 140.968C289.458 139.352 285.775 143.547 285.18 146.074C280.985 145.536 276.822 143.836 272.553 145.694Z" fill="#AE7F63"/>
<path d="M266.955 139.294C268.503 139.294 266.221 139.275 266.955 139.294C263.031 133.428 263.172 131.635 268.655 126.365C269.63 127.907 268.371 129.024 267.872 130.232C267.016 132.298 265.654 134.159 269.205 135.299C272.821 136.461 268.726 139.294 266.955 139.294Z" fill="#E07868"/>
<path d="M176.781 260.119C176.836 267.26 179.044 273.698 184.076 278.746C187.559 282.242 187.192 286.382 186.069 289.994C185.106 293.079 181.147 292.847 178.127 292.869C166.444 292.96 154.687 293.726 143.348 289.994C141.558 289.405 140.222 290.178 138.677 290.304C137.656 276.035 147.279 267.649 156.094 258.818C162.854 261.42 169.905 259.398 176.781 260.119Z" fill="#FAFAFA"/>
<path d="M147.888 249.106C149.079 250.088 148.818 251.549 149.124 252.824C148.989 253.194 148.882 253.574 148.805 253.96C148.042 254.173 147.221 254.273 146.526 254.62C138.159 258.818 129.936 263.525 119.95 260.132C118.215 259.543 116.428 260.46 114.825 261.333C112.832 261.404 110.843 261.471 108.85 261.542C107.25 256.597 102.73 257.067 98.9793 256.523C95.9982 256.092 93.0267 256.021 90.5639 254.015L90.5543 254.025C95.4541 253.806 100.135 254.997 104.819 256.208C107.436 256.884 109.655 255.853 111.474 254.141C113.473 252.261 110.076 251.964 110.154 250.316C118.109 250.838 125.69 252.821 133.294 254.723C139.424 256.262 144.25 254.16 147.888 249.106Z" fill="#90949D"/>
<path d="M176.781 260.119C169.905 259.398 162.854 261.42 156.094 258.822C156.554 258.007 157.018 257.193 157.478 256.378C159.767 254.418 162.143 253.874 165.246 254.694C168.913 255.663 172.796 255.786 176.588 254.846C178.033 256.877 181.217 257.856 180.47 261.227C180.052 261.249 179.637 261.272 179.218 261.294C178.136 261.455 178.445 258.741 176.781 260.119Z" fill="#F0EAD9"/>
<path d="M114.822 261.333C116.425 260.457 118.212 259.54 119.947 260.132C129.936 263.525 138.155 258.818 146.522 254.62C147.218 254.273 148.039 254.173 148.802 253.96C149.259 253.912 149.713 253.861 150.17 253.812C150.17 253.812 150.373 253.809 150.376 253.809C149.925 256.964 147.305 257.856 144.935 259.008C141.69 258.767 139.192 260.682 136.646 262.154C132.847 264.349 129.051 265.756 124.663 264.288C122.249 263.712 119.831 263.136 117.416 262.559C116.38 262.517 115.424 262.302 114.822 261.333Z" fill="#7F818B"/>
<path d="M124.666 264.288C129.054 265.756 132.847 264.349 136.649 262.154C139.195 260.682 141.694 258.767 144.939 259.008C144.903 259.205 144.923 259.437 144.819 259.591C137.528 270.827 137.528 270.823 124.57 265.978C124.602 265.415 124.634 264.851 124.666 264.288Z" fill="#F0EAD9"/>
<path d="M124.666 264.288C124.634 264.851 124.602 265.415 124.57 265.978C122.075 265.074 118.83 265.727 117.42 262.559C119.834 263.136 122.252 263.712 124.666 264.288Z" fill="#E0E2E4"/>
<path d="M306.559 172.814C310.413 173.329 314.723 170.853 318.091 174.565C315.132 182.433 312.171 190.298 309.209 198.163C306.25 194.657 302.815 192.007 297.967 191.885C299.232 184.812 304.051 179.333 306.559 172.814Z" fill="#90949D"/>
<path d="M297.967 191.888C302.815 192.011 306.25 194.66 309.209 198.166C307.663 209.099 305.333 220.029 309.032 230.99C304.83 236.409 308.346 242.277 308.043 247.921C306.466 249.109 306.759 250.921 306.987 252.38C307.615 256.388 305.452 257.798 302.075 258.358C301.576 257.682 299.583 256.932 300.565 256.552C307.171 253.986 303.572 248.584 304.293 244.422C304.244 237.941 304.196 231.46 304.151 224.977C304.141 216.909 304.193 208.841 304.077 200.777C304.042 198.436 304.154 195.414 300.52 195.739C296.402 196.109 292.613 194.589 288.64 194.245C288.64 193.611 288.644 192.976 288.644 192.342C291.731 191.792 294.908 193.067 297.967 191.888Z" fill="#7F818B"/>
<path d="M308.043 247.918C308.346 242.271 304.83 236.405 309.032 230.987C312.183 237.162 314.308 243.987 320.138 248.462C320.856 249.537 321.571 250.609 322.289 251.681C318.313 251.066 319.102 254.997 317.521 256.671C316.391 256.185 315.261 255.696 314.134 255.206C312.103 252.776 310.071 250.348 308.043 247.918Z" fill="#90949D"/>
<path d="M171.891 138.425C172.628 137.684 177.351 136.792 179.994 139.081C181.971 140.794 183.654 142.526 182.441 145.24C180.899 148.688 177.753 148.727 174.647 148.186C171.901 147.706 170.313 146.077 170.854 143.067C171.138 141.496 171.543 139.947 171.897 138.389C171.897 138.392 171.891 138.425 171.891 138.425Z" fill="#E07868"/>
<path d="M173.483 132.626C173.261 134.97 173.242 137.478 170.535 137.327C168.371 137.204 167.991 135.018 168.297 133.125C168.59 131.303 167.94 128.467 170.715 128.419C173.326 128.374 173.248 130.981 173.483 132.626Z" fill="#4A2C30"/>
<path d="M167.786 120.986C171.839 117.715 175.188 119.276 178.265 122.779C174.666 123.233 171.331 121.14 167.786 120.986Z" fill="#4A2C30"/>
<path d="M165.935 147.291C163.147 150.282 159.197 149.19 155.833 150.153C153.444 149.873 150.923 150.278 148.757 148.81C154.31 146.344 160.06 146.129 165.935 147.291Z" fill="#F0EAD9"/>
<path d="M146.597 132.379C146.374 134.722 146.355 137.23 143.648 137.079C141.484 136.957 141.104 134.771 141.41 132.878C141.703 131.056 141.053 128.219 143.828 128.171C146.439 128.126 146.362 130.734 146.597 132.379Z" fill="#4A2C30"/>
<path d="M147.549 121.317C145.798 121.433 144.633 121.623 143.483 121.565C141.806 121.481 140.287 123.732 138.555 121.89C138.384 121.71 138.461 121.043 138.664 120.805C140.068 119.16 141.896 118.497 144.021 118.848C145.177 119.038 146.371 119.286 147.549 121.317Z" fill="#4A2C30"/>
<path d="M151.892 137.472C151.625 139.787 154.79 140.839 153.908 143.044C153.772 143.383 151.822 143.534 151.281 143.083C148.982 141.18 150.643 139.32 151.892 137.472Z" fill="#E07868"/>
<path d="M154.403 133.509C154.262 133.837 154.12 134.165 153.979 134.494C153.653 134.352 153.135 134.281 153.051 134.05C152.961 133.805 153.28 133.409 153.418 133.077C153.75 133.222 154.075 133.364 154.403 133.509Z" fill="#E07868"/>
<path d="M304.29 244.418C303.572 248.581 307.168 253.98 300.562 256.549C299.58 256.929 301.572 257.679 302.071 258.355C300.764 260.863 298.624 261.642 295.945 261.3C293.36 257.904 295.552 253.964 294.693 250.371C298.36 249.141 301.92 247.737 304.29 244.418Z" fill="#F0EAD9"/>
<path d="M355.014 82.1732C355.323 85.1221 355.332 86.3004 355.587 87.4207C356.185 90.0348 357.946 93.4055 352.631 90.3729C350.381 89.0883 347.767 92.5588 345.069 90.4952C344.985 88.1451 351.682 88.6344 347.715 84.5909C347.548 84.4203 347.879 83.3225 348.195 83.1969C349.206 82.7913 350.22 83.1261 350.89 83.9889C352.29 85.7917 353.613 88.0131 355.014 82.1732Z" fill="#E07868"/>
<path d="M238.834 221.371C242.101 218.808 244.275 223.167 247.211 222.691C247.439 223.142 247.664 223.589 247.893 224.04C248.141 223.605 248.386 223.171 248.634 222.736C250.105 216.165 247.642 209.527 248.962 202.953C250.462 203.085 251.763 202.77 252.568 201.34C259.518 203.011 266.668 202.139 273.661 202.995C279.575 203.716 285.736 202.667 291.399 205.29C291.328 212.692 291.258 220.093 291.184 227.497C288.534 229.072 288.708 227.414 288.866 225.55C289.139 222.289 287.668 222.115 285.46 223.84C284.355 224.703 283.103 225.637 282.495 226.831C278.664 234.345 272.215 235.562 264.695 234.651C257.268 233.753 249.97 236.647 242.369 235.591C248.524 232.668 248.769 230.327 243.846 225.582C242.256 224.053 239.771 223.628 238.834 221.371Z" fill="#E07868"/>
<path d="M291.399 205.29C285.737 202.667 279.575 203.716 273.661 202.995C266.668 202.142 259.518 203.011 252.568 201.344C254.255 198.939 256.746 199.489 259.116 199.563C270.676 199.917 282.205 201.212 293.795 200.77C293.795 200.77 294.033 200.648 294.036 200.648C296.183 202.161 296.785 204.251 296.814 206.82C296.885 213.155 297.197 219.488 297.413 225.823C296.479 227.182 295.102 227.272 293.643 227.15C292.001 219.955 293.782 212.408 291.399 205.29Z" fill="#F0EAD9"/>
<path d="M288.64 194.242C292.613 194.586 296.402 196.106 300.52 195.735C304.151 195.41 304.042 198.433 304.077 200.774C304.193 208.838 304.141 216.906 304.151 224.974C302.986 224.919 301.82 224.864 300.658 224.806C300.652 218.165 300.397 211.513 300.71 204.891C300.977 199.248 298.939 196.965 293.106 196.901C282.668 196.782 272.241 195.99 261.791 194.908C270.606 191.296 279.729 195.404 288.64 194.242Z" fill="#F0EAD9"/>
<path d="M297.407 225.823C297.191 219.488 296.879 213.155 296.808 206.82C296.779 204.251 296.18 202.158 294.03 200.648C298.379 200.02 299.712 202.264 299.641 206.224C299.531 212.434 299.628 218.647 299.638 224.858C299.135 225.727 298.337 225.926 297.407 225.823Z" fill="#AE7F63"/>
<path d="M291.399 205.29C293.782 212.408 292.001 219.955 293.64 227.147C292.822 227.259 292.001 227.375 291.184 227.494C291.254 220.093 291.329 212.692 291.399 205.29Z" fill="#AE7F63"/>
<path d="M179.218 261.291C179.637 261.268 180.052 261.246 180.47 261.223C184.417 264.314 188.229 267.717 193.422 268.505C195.823 268.869 196.506 270.25 196.21 272.269C195.498 277.14 195.292 282.236 191.114 286.138C188.21 277.178 178.729 271.657 179.218 261.291Z" fill="#FAFAFA"/>
<path d="M160.62 234.387C155.929 235.98 150.067 235.881 148.863 242.512C135.615 239.927 122.365 237.361 109.127 234.744C100.978 233.134 101.072 233.109 102.324 224.594C103.409 217.221 104.5 209.836 105.164 202.419C105.621 197.306 107.881 196.279 112.649 197.133C126.714 199.65 140.679 202.799 154.919 204.308C164.535 206.897 164.474 206.887 162.983 216.6C162.072 222.511 161.399 228.457 160.62 234.387ZM129.592 227.307C130.748 227.575 131.9 227.864 133.066 228.103C143.416 230.224 144.652 229.091 145.215 218.194C145.409 214.462 144.391 212.45 140.473 212.47C140.106 210.808 140.621 208.96 138.613 207.753C133.41 204.63 122.78 206.816 118.794 211.999C118.263 214.742 117.61 217.466 117.236 220.228C116.769 223.692 117.693 226.177 121.895 226.252C124.476 226.3 126.894 227.864 129.592 227.307ZM113.592 231.232C122.954 234.76 131.53 234.693 139.71 236.621C141.011 236.927 142.798 237.712 143.361 235.906C143.879 234.239 142.823 232.722 141.053 232.233C132.712 229.918 124.248 228.367 115.375 227.755C116.013 230.833 118.823 228.747 119.767 230.739C118.08 230.871 116.528 230.997 113.592 231.232Z" fill="#FAFAFA"/>
<path d="M147.888 249.106C144.25 254.16 139.424 256.262 133.294 254.727C125.69 252.824 118.109 250.841 110.154 250.319C110.073 251.968 113.473 252.264 111.474 254.144C109.655 255.853 107.436 256.887 104.819 256.211C100.135 255 95.4541 253.809 90.5543 254.028C90.4319 250.268 94.4464 250.429 96.1945 248.188C93.4742 244.502 88.4617 246.739 85.1779 243.684C91.0919 239.898 96.8352 237.597 104.159 239.248C118.566 242.5 133.13 245.043 147.63 247.879C147.717 248.288 147.801 248.697 147.888 249.106ZM101.738 248.613C101.4 248.433 101.11 248.227 100.785 248.124C100.637 248.075 100.425 248.233 100.244 248.294C100.383 248.526 100.531 248.961 100.663 248.958C101.014 248.945 101.362 248.745 101.738 248.613Z" fill="#7F818B"/>
<path d="M160.62 234.387C161.399 228.457 162.072 222.511 162.98 216.603C164.47 206.89 164.532 206.9 154.915 204.312C155.733 203.546 156.551 202.779 157.368 202.016C160.182 202.174 162.993 202.329 165.806 202.486C166.569 202.699 167.332 202.911 168.095 203.121C169.158 207.525 168.089 211.929 168.099 216.336C166.444 221.091 166.309 226.11 165.565 231.019C164.709 233.296 163.849 235.578 160.62 234.387Z" fill="#7F818B"/>
<path d="M165.806 202.483C162.993 202.325 160.182 202.171 157.368 202.013C156.09 200.523 154.168 200.98 152.578 200.439C152.362 193.257 157.587 197.725 160.23 197.068C164.416 196.028 166.698 197.847 165.806 202.483Z" fill="#FAFAFA"/>
<path d="M168.099 216.33C168.086 211.926 169.154 207.518 168.095 203.114C170.304 193.43 178.487 194.47 185.515 193.43C182.077 204.608 177.325 215.167 170.69 224.838C167.96 222.572 171.234 218.477 168.099 216.33Z" fill="#FAFAFA"/>
<path d="M187.031 190.935C186.635 191.859 186.542 192.986 185.39 193.411C185.393 192.226 185.705 191.248 187.031 190.935Z" fill="#FAFAFA"/>
<path d="M293.791 200.767C282.202 201.211 270.673 199.914 259.113 199.56C256.743 199.486 254.251 198.935 252.564 201.34C251.766 202.766 250.462 203.082 248.962 202.95C248.582 200.156 251.821 200.069 252.574 198.124C263.584 198.118 274.594 198.127 285.601 198.095C288.644 198.092 291.66 198.05 293.791 200.767Z" fill="#AE7F63"/>
<path d="M73.1956 128.432C71.9336 128.638 70.9871 127.707 71.4088 127.337C73.833 125.225 72.2587 120.725 75.491 119.749C76.9236 119.318 79.1095 121.385 80.9542 122.318C79.5699 123.728 78.1212 125.106 78.3562 127.353C76.4632 127.363 74.3674 126.41 73.1956 128.432Z" fill="#E07868"/>
<path d="M69.973 122.103C70.1919 122.37 70.5718 122.618 70.5718 122.869C70.5718 123.529 70.0857 123.802 69.5159 123.529C69.2873 123.419 69.0941 122.891 69.1617 122.624C69.2197 122.402 69.68 122.28 69.973 122.103Z" fill="#E07868"/>
<path d="M248.634 222.736C248.386 223.171 248.141 223.605 247.893 224.04C247.665 223.589 247.439 223.142 247.211 222.691C247.687 222.707 248.16 222.72 248.634 222.736Z" fill="#EDA386"/>
<path d="M308.198 167.875C303.816 167.141 301.595 169.057 301.247 165.844C300.909 162.744 304.785 162 307.593 161.971C310.223 161.942 313.542 162.647 313.503 165.689C313.445 169.836 311.543 167.141 308.198 167.875Z" fill="#CEE1EC"/>
<path d="M168.099 216.33C171.231 218.477 167.957 222.569 170.687 224.838C169.48 226.924 168.276 229.007 167.068 231.097C166.569 231.071 166.067 231.042 165.568 231.016C166.312 226.103 166.444 221.088 168.099 216.33Z" fill="#E0E2E4"/>
<path d="M150.173 253.812C149.716 253.861 149.262 253.912 148.805 253.96C148.882 253.571 148.985 253.194 149.124 252.821C149.475 253.152 149.826 253.481 150.173 253.812Z" fill="#AE7F63"/>
<path d="M118.785 212.009C122.78 206.816 133.41 204.634 138.613 207.753C140.621 208.96 140.103 210.805 140.473 212.47C140.467 212.975 140.464 213.48 140.457 213.986C138.11 223.467 138.11 223.467 130.632 222.437C125.5 221.654 122.043 219.864 124.006 213.535C124.721 211.237 122.625 211.237 120.922 211.777C120.208 211.858 119.496 211.935 118.785 212.009ZM135.912 214.894C136.427 212.112 134.811 211.34 132.496 211.536C130.13 211.736 127.454 211.81 127.165 215.113C126.759 219.687 130.6 218.879 133.043 219.336C137.215 220.122 134.627 216.304 135.912 214.894Z" fill="#62A4D1"/>
<path d="M113.592 231.232C116.531 230.997 118.08 230.871 119.767 230.736C118.823 228.747 116.013 230.829 115.375 227.752C124.248 228.363 132.712 229.915 141.053 232.23C142.823 232.722 143.883 234.239 143.361 235.903C142.798 237.709 141.011 236.927 139.71 236.618C131.527 234.693 122.954 234.76 113.592 231.232Z" fill="#E0E2E4"/>
<path d="M140.457 213.989C140.464 213.484 140.467 212.978 140.473 212.473C144.391 212.453 145.405 214.466 145.215 218.197C144.652 229.091 143.416 230.227 133.066 228.106C131.903 227.868 130.751 227.575 129.592 227.311C129.576 226.834 129.563 226.355 129.547 225.878C131.33 226.016 133.114 226.155 134.894 226.297C137.077 226.47 140.818 228.782 141.034 225.907C141.323 222.099 145.312 217.614 140.457 213.989Z" fill="#EDA386"/>
<path d="M129.547 225.875C129.56 226.351 129.576 226.831 129.592 227.308C126.897 227.864 124.48 226.3 121.895 226.255C117.693 226.181 116.769 223.695 117.236 220.231C117.61 217.469 118.263 214.742 118.791 212.006C119.499 211.935 120.211 211.858 120.922 211.781C120.002 224.211 120.002 224.211 129.412 224.893C129.428 225.225 129.473 225.553 129.547 225.875Z" fill="#CEE1EC"/>
<path d="M101.738 248.613C101.365 248.745 101.017 248.945 100.663 248.958C100.531 248.961 100.386 248.529 100.244 248.294C100.428 248.23 100.637 248.075 100.785 248.124C101.107 248.227 101.4 248.433 101.738 248.613Z" fill="#90949D"/>
<path d="M129.547 225.875C129.473 225.553 129.425 225.225 129.409 224.893C130.387 224.359 130.635 223.464 130.629 222.44C138.107 223.47 138.107 223.47 140.454 213.989C145.309 217.614 141.323 222.099 141.034 225.904C140.815 228.779 137.077 226.467 134.894 226.293C133.114 226.152 131.33 226.013 129.547 225.875Z" fill="#F0EAD9"/>
<path d="M130.629 222.44C130.638 223.464 130.387 224.359 129.408 224.893C119.998 224.207 119.998 224.207 120.919 211.781C122.622 211.24 124.718 211.243 124.003 213.538C122.039 219.868 125.497 221.658 130.629 222.44Z" fill="#E0E2E4"/>
<path d="M135.912 214.894C134.627 216.304 137.215 220.122 133.04 219.336C130.596 218.876 126.759 219.687 127.161 215.113C127.454 211.81 130.126 211.736 132.493 211.536C134.807 211.34 136.423 212.112 135.912 214.894Z" fill="#FAFAFA"/>
<path d="M147.034 149.274C147.594 148.825 148.805 148.791 148.805 148.791L154.439 150.079L149.771 152.976C149.771 152.976 145.632 150.399 147.034 149.274Z" fill="#4A2C30"/>
<path d="M165.868 147.342C165.209 147.454 164.58 148.469 164.58 148.469C164.58 148.469 167.155 150.562 167.316 150.401C167.477 150.24 167.088 147.135 165.868 147.342Z" fill="#4A2C30"/>
</svg>
